<svg xmlns="http://www.w3.org/2000/svg" xmlns:xlink="http://www.w3.org/1999/xlink" viewBox="0,0,256,256" width="50px" height="50px" fill-rule="nonzero"><g fill-opacity="0.47843" fill="#000000" fill-rule="nonzero" stroke="none" stroke-width="1" stroke-linecap="butt" stroke-linejoin="miter" stroke-miterlimit="10" stroke-dasharray="" stroke-dashoffset="0" font-family="none" font-weight="none" font-size="none" text-anchor="none" style="mix-blend-mode: normal"><g transform="scale(5.12,5.12)"><path d="M9,4c-2.76,0 -5,2.24 -5,5v32c0,2.76 2.24,5 5,5h32c2.76,0 5,-2.24 5,-5v-32c0,-2.76 -2.24,-5 -5,-5zM14.93945,16h8.53125c2.6,0 4.69922,1.89047 4.69922,4.23047c0,1.9 -1.41008,3.48953 -3.33008,4.01953c2.36,0.4 4.16016,2.40984 4.16016,4.83984c0,2.71 -2.24953,4.91016 -5.01953,4.91016h-9.04102zM30.93945,16h4.06055v12h-4.06055zM19.21094,19.94922v3.65039h2.4082c1.04,0 1.89063,-0.81984 1.89063,-1.83984c0,-0.94 -0.73945,-1.71055 -1.68945,-1.81055zM19.21094,26.80078v4.00977h3c1.14,0 2.05859,-0.9 2.05859,-2c0,-1.11 -0.91859,-2.00977 -2.05859,-2.00977zM32.9707,30c1.12,0 2.0293,0.9 2.0293,2c0,1.1 -0.9093,2 -2.0293,2c-1.12,0 -2.03125,-0.9 -2.03125,-2c0,-1.1 0.91125,-2 2.03125,-2z"></path></g></g></svg>