<svg xmlns="http://www.w3.org/2000/svg" viewBox="0 0 1200 600">
  <!-- Background gradient -->
  <defs>
    <linearGradient id="bg-gradient" x1="0%" y1="0%" x2="100%" y2="100%">
      <stop offset="0%" stop-color="#50A0B4" />
      <stop offset="100%" stop-color="#2C5D6B" />
    </linearGradient>
    
    <!-- Wave pattern removed -->
    
    <!-- Decorative circles -->
    <filter id="blur-filter" x="-50%" y="-50%" width="200%" height="200%">
      <feGaussianBlur in="SourceGraphic" stdDeviation="15" />
    </filter>
  </defs>
  
  <!-- Main background -->
  <rect width="1200" height="600" fill="url(#bg-gradient)" />
  
  <!-- Wave pattern overlay removed -->
  
  <!-- Decorative elements -->
  <circle cx="200" cy="150" r="100" fill="#50A0B4" opacity="0.6" filter="url(#blur-filter)" />
  <circle cx="1000" cy="450" r="120" fill="#7CCCE0" opacity="0.4" filter="url(#blur-filter)" />
  <circle cx="600" cy="100" r="70" fill="#3A7D8C" opacity="0.5" filter="url(#blur-filter)" />
  
  <!-- Geometric accent shapes removed -->
  
  <!-- Central focal element removed as requested -->
  
  <!-- Subtle dot pattern overlay -->
  <g opacity="0.2">
    <rect x="0" y="0" width="1200" height="600" fill="none" />
    <!-- Creating a grid of dots -->
    <g id="dots">
      <circle cx="0" cy="0" r="1.5" fill="#FFFFFF" />
    </g>
    <use href="#dots" x="50" y="50" />
    <use href="#dots" x="150" y="50" />
    <use href="#dots" x="250" y="50" />
    <use href="#dots" x="350" y="50" />
    <use href="#dots" x="450" y="50" />
    <use href="#dots" x="550" y="50" />
    <use href="#dots" x="650" y="50" />
    <use href="#dots" x="750" y="50" />
    <use href="#dots" x="850" y="50" />
    <use href="#dots" x="950" y="50" />
    <use href="#dots" x="1050" y="50" />
    <use href="#dots" x="1150" y="50" />
    
    <!-- Repeating for multiple rows -->
    <use href="#dots" x="50" y="150" />
    <use href="#dots" x="150" y="150" />
    <use href="#dots" x="250" y="150" />
    <use href="#dots" x="350" y="150" />
    <use href="#dots" x="450" y="150" />
    <use href="#dots" x="550" y="150" />
    <use href="#dots" x="650" y="150" />
    <use href="#dots" x="750" y="150" />
    <use href="#dots" x="850" y="150" />
    <use href="#dots" x="950" y="150" />
    <use href="#dots" x="1050" y="150" />
    <use href="#dots" x="1150" y="150" />
    
    <use href="#dots" x="50" y="250" />
    <use href="#dots" x="150" y="250" />
    <use href="#dots" x="250" y="250" />
    <use href="#dots" x="350" y="250" />
    <use href="#dots" x="450" y="250" />
    <use href="#dots" x="550" y="250" />
    <use href="#dots" x="650" y="250" />
    <use href="#dots" x="750" y="250" />
    <use href="#dots" x="850" y="250" />
    <use href="#dots" x="950" y="250" />
    <use href="#dots" x="1050" y="250" />
    <use href="#dots" x="1150" y="250" />
    
    <use href="#dots" x="50" y="350" />
    <use href="#dots" x="150" y="350" />
    <use href="#dots" x="250" y="350" />
    <use href="#dots" x="350" y="350" />
    <use href="#dots" x="450" y="350" />
    <use href="#dots" x="550" y="350" />
    <use href="#dots" x="650" y="350" />
    <use href="#dots" x="750" y="350" />
    <use href="#dots" x="850" y="350" />
    <use href="#dots" x="950" y="350" />
    <use href="#dots" x="1050" y="350" />
    <use href="#dots" x="1150" y="350" />
    
    <use href="#dots" x="50" y="450" />
    <use href="#dots" x="150" y="450" />
    <use href="#dots" x="250" y="450" />
    <use href="#dots" x="350" y="450" />
    <use href="#dots" x="450" y="450" />
    <use href="#dots" x="550" y="450" />
    <use href="#dots" x="650" y="450" />
    <use href="#dots" x="750" y="450" />
    <use href="#dots" x="850" y="450" />
    <use href="#dots" x="950" y="450" />
    <use href="#dots" x="1050" y="450" />
    <use href="#dots" x="1150" y="450" />
    
    <use href="#dots" x="50" y="550" />
    <use href="#dots" x="150" y="550" />
    <use href="#dots" x="250" y="550" />
    <use href="#dots" x="350" y="550" />
    <use href="#dots" x="450" y="550" />
    <use href="#dots" x="550" y="550" />
    <use href="#dots" x="650" y="550" />
    <use href="#dots" x="750" y="550" />
    <use href="#dots" x="850" y="550" />
    <use href="#dots" x="950" y="550" />
    <use href="#dots" x="1050" y="550" />
    <use href="#dots" x="1150" y="550" />
  </g>
</svg>
