<?xml version="1.0" encoding="utf-8"?>
<!-- Generator: Adobe Illustrator 17.0.0, SVG Export Plug-In . SVG Version: 6.00 Build 0) -->
<!DOCTYPE svg PUBLIC "-//W3C//DTD SVG 1.1//EN" "http://www.w3.org/Graphics/SVG/1.1/DTD/svg11.dtd">
<svg xmlns="http://www.w3.org/2000/svg" xmlns:xlink="http://www.w3.org/1999/xlink" viewBox="0 0 50 50" width="50px" height="50px">
  <path fill="#FFCC00" stroke="#000000" stroke-width="2" stroke-linecap="round" stroke-linejoin="round" stroke-miterlimit="10" d="M25.354,34.564l-0.842,2.516c-0.601,1.808-2.553,2.783-4.361,2.179l-4.146-1.385c-1.806-0.604-2.779-2.556-2.176-4.364l0.852-2.334"/>
  <path fill="#FFCC00" stroke="#000000" d="M47,6c-1.654,0-3,1.346-3,3v32c0,1.654,1.346,3,3,3s3-1.346,3-3V9C50,7.346,48.654,6,47,6z"/>
  <path fill="#FFCC00" stroke="#000000" d="M3,18c-1.654,0-3,1.346-3,3v6c0,1.654,1.346,3,3,3s3-1.346,3-3v-6C6,19.346,4.654,18,3,18z"/>
  <polygon fill="#FFCC00" stroke="#000000" points="8,19.056 8,29.11 42,41.01 42,8.856"/>
</svg>